<svg preserveAspectRatio="none" overflow="visible" style="display: block;" width="17.2346" height="17.2745" viewBox="0 0 17.2346 17.2745" fill="none" xmlns="http://www.w3.org/2000/svg">
<g id="Container">
<path id="Icon" d="M17.2346 17.2745L13.8564 13.8963H5.42347C4.89871 13.8963 4.45155 13.7115 4.08198 13.3419C3.71241 12.9724 3.52763 12.5252 3.52763 12.0005V11.1671H12.6096C13.1344 11.1671 13.5815 10.9823 13.9511 10.6128C14.3207 10.2432 14.5054 9.79605 14.5054 9.27129V3.53261H15.3388C15.8635 3.53261 16.3107 3.7174 16.6803 4.08696C17.0498 4.45653 17.2346 4.90369 17.2346 5.42845V17.2745V17.2745M1.89584 8.34964L2.64085 7.60462H10.9429V7.60462V7.60462V1.89584V1.89584V1.89584H1.89584V1.89584V1.89584V8.34964V8.34964M0 12.9085V1.89584C0 1.37108 0.184783 0.923915 0.554349 0.554349C0.923915 0.184783 1.37108 0 1.89584 0H10.9429C11.4677 0 11.9149 0.184783 12.2844 0.554349C12.654 0.923915 12.8388 1.37108 12.8388 1.89584V7.60462C12.8388 8.12938 12.654 8.57654 12.2844 8.94611C11.9149 9.31568 11.4677 9.50046 10.9429 9.50046H3.41305L0 12.9085V12.9085M1.89584 7.60462V1.89584V1.89584V1.89584V1.89584V1.89584V1.89584V7.60462V7.60462V7.60462V7.60462V7.60462V7.60462" fill="#D87F3C"/>
</g>
</svg>
