<svg preserveAspectRatio="none" overflow="visible" style="display: block;" width="20" height="20" viewBox="0 0 20 20" fill="none" xmlns="http://www.w3.org/2000/svg">
<g id="carbon:logo-instagram">
<path id="Vector" d="M14.0035 6.8957C14.5006 6.8957 14.9035 6.49276 14.9035 5.9957C14.9035 5.49865 14.5006 5.0957 14.0035 5.0957C13.5065 5.0957 13.1035 5.49865 13.1035 5.9957C13.1035 6.49276 13.5065 6.8957 14.0035 6.8957Z" fill="#DDDDDD"/>
<path id="Vector_2" d="M9.99969 6.14844C9.23798 6.14844 8.49338 6.37431 7.86005 6.79749C7.22671 7.22067 6.73309 7.82215 6.4416 8.52588C6.15011 9.2296 6.07384 10.004 6.22244 10.751C6.37104 11.4981 6.73784 12.1843 7.27644 12.7229C7.81505 13.2615 8.50128 13.6283 9.24835 13.7769C9.99542 13.9255 10.7698 13.8493 11.4735 13.5578C12.1772 13.2663 12.7787 12.7727 13.2019 12.1393C13.6251 11.506 13.8509 10.7614 13.8509 9.99969C13.8511 9.49389 13.7516 8.99301 13.5581 8.52568C13.3646 8.05835 13.081 7.63373 12.7233 7.27608C12.3656 6.91842 11.941 6.63475 11.4737 6.44126C11.0064 6.24778 10.5055 6.14827 9.99969 6.14844ZM9.99969 12.4997C9.50524 12.4997 9.02189 12.3531 8.61076 12.0784C8.19964 11.8037 7.87921 11.4132 7.68999 10.9564C7.50077 10.4996 7.45126 9.99691 7.54773 9.51196C7.64419 9.02701 7.88229 8.58155 8.23192 8.23192C8.58155 7.88229 9.02701 7.64419 9.51196 7.54772C9.99692 7.45126 10.4996 7.50077 10.9564 7.68999C11.4132 7.87921 11.8037 8.19964 12.0784 8.61076C12.3531 9.02189 12.4997 9.50523 12.4997 9.99969C12.4997 10.6627 12.2363 11.2986 11.7675 11.7675C11.2986 12.2363 10.6627 12.4997 9.99969 12.4997Z" fill="#DDDDDD"/>
<path id="Vector_3" d="M10 3.85125C12.0025 3.85125 12.24 3.85875 13.0306 3.895C13.5062 3.90012 13.9773 3.98745 14.4231 4.15312C14.7466 4.2781 15.0403 4.46932 15.2855 4.71451C15.5307 4.95969 15.7219 5.25343 15.8469 5.57688C16.0125 6.02269 16.0999 6.4938 16.105 6.96938C16.1412 7.76 16.1487 7.9975 16.1487 10.0006C16.1487 12.0037 16.1412 12.24 16.105 13.0306C16.0999 13.5062 16.0125 13.9773 15.8469 14.4231C15.7219 14.7466 15.5307 15.0403 15.2855 15.2855C15.0403 15.5307 14.7466 15.7219 14.4231 15.8469C13.9773 16.0125 13.5062 16.0999 13.0306 16.105C12.24 16.1412 12.0025 16.1487 10 16.1487C7.9975 16.1487 7.76 16.1412 6.96938 16.105C6.4938 16.0999 6.02269 16.0125 5.57688 15.8469C5.25343 15.7219 4.95969 15.5307 4.71451 15.2855C4.46932 15.0403 4.2781 14.7466 4.15312 14.4231C3.98745 13.9773 3.90012 13.5062 3.895 13.0306C3.85875 12.24 3.85125 12.0025 3.85125 10C3.85125 7.9975 3.85875 7.76 3.895 6.96938C3.90012 6.4938 3.98745 6.02269 4.15312 5.57688C4.2781 5.25343 4.46932 4.95969 4.71451 4.71451C4.95969 4.46932 5.25343 4.2781 5.57688 4.15312C6.02269 3.98745 6.4938 3.90012 6.96938 3.895C7.76 3.85875 7.9975 3.85125 10 3.85125ZM10 2.5C7.96312 2.5 7.7075 2.50875 6.9075 2.545C6.28547 2.55748 5.67008 2.6754 5.0875 2.89375C4.58928 3.08657 4.13681 3.38129 3.75905 3.75905C3.38129 4.13681 3.08657 4.58928 2.89375 5.0875C2.67533 5.67027 2.55741 6.28589 2.545 6.90813C2.50875 7.70813 2.5 7.9625 2.5 10C2.5 12.0375 2.50875 12.2925 2.545 13.0925C2.55748 13.7145 2.6754 14.3299 2.89375 14.9125C3.08657 15.4107 3.38129 15.8632 3.75905 16.2409C4.13681 16.6187 4.58928 16.9134 5.0875 17.1063C5.67027 17.3247 6.28589 17.4426 6.90813 17.455C7.70813 17.4912 7.96312 17.5 10 17.5C12.0369 17.5 12.2925 17.4912 13.0925 17.455C13.7147 17.4426 14.3304 17.3247 14.9131 17.1063C15.4113 16.9134 15.8638 16.6187 16.2416 16.2409C16.6193 15.8632 16.9141 15.4107 17.1069 14.9125C17.3251 14.3297 17.4428 13.7141 17.455 13.0919C17.4912 12.2919 17.5 12.0375 17.5 10C17.5 7.9625 17.4912 7.7075 17.455 6.9075C17.4425 6.28547 17.3246 5.67008 17.1063 5.0875C16.9134 4.58928 16.6187 4.13681 16.2409 3.75905C15.8632 3.38129 15.4107 3.08657 14.9125 2.89375C14.3297 2.67554 13.7141 2.55783 13.0919 2.54562C12.2919 2.50812 12.0375 2.5 10 2.5Z" fill="#DDDDDD"/>
</g>
</svg>
